<?xml version="1.0" standalone="no"?>
<!DOCTYPE svg PUBLIC "-//W3C//DTD SVG 20010904//EN"
 "http://www.w3.org/TR/2001/REC-SVG-20010904/DTD/svg10.dtd">
<svg version="1.0" xmlns="http://www.w3.org/2000/svg"
 width="700.000000pt" height="700.000000pt" viewBox="0 0 700.000000 700.000000"
 preserveAspectRatio="xMidYMid meet">
<metadata>
Created by potrace 1.14, written by Peter Selinger 2001-2017
</metadata>
<g transform="translate(0.000000,700.000000) scale(0.100000,-0.100000)"
fill="#000000" stroke="none">
<path d="M0 3500 l0 -3500 3500 0 3500 0 0 3500 0 3500 -3500 0 -3500 0 0
-3500z m6599 3073 c64 -12 77 -26 88 -102 14 -97 8 -589 -8 -646 -22 -77 -27
-78 -347 -83 l-274 -4 4 -93 c1 -52 6 -96 10 -100 3 -4 38 -15 76 -24 94 -25
165 -65 219 -125 211 -235 116 -582 -190 -696 -45 -17 -67 -33 -105 -78 -83
-100 -324 -336 -404 -395 -91 -68 -289 -189 -365 -224 -30 -14 -53 -31 -53
-40 0 -8 14 -49 31 -91 40 -97 43 -171 9 -256 -45 -117 -140 -181 -297 -199
l-93 -11 0 -86 c0 -87 15 -130 44 -130 7 0 21 -8 30 -19 26 -28 31 -137 101
-1944 31 -795 33 -901 20 -926 -8 -16 -22 -32 -32 -36 -46 -19 -392 -24 -1543
-24 -1143 0 -1497 6 -1542 24 -9 3 -23 21 -31 38 -14 29 -12 120 18 907 64
1651 77 1917 92 1944 4 8 24 25 43 38 l35 24 3 95 3 96 -68 6 c-130 12 -233
59 -286 129 -59 77 -74 266 -28 342 12 18 21 36 21 40 0 3 -54 33 -120 66 -65
33 -145 76 -177 96 -171 109 -334 265 -477 457 -87 117 -136 167 -162 167 -31
0 -101 45 -155 101 -134 136 -165 319 -83 483 59 117 142 184 277 223 45 13
85 29 89 36 4 6 8 51 8 98 l0 87 -272 4 c-212 3 -280 7 -303 19 -50 24 -57 73
-59 394 -1 308 8 386 47 407 14 8 107 14 267 19 386 10 5877 3 5939 -8z"/>
<path d="M560 6170 l0 -210 2960 0 2960 0 0 210 0 210 -2960 0 -2960 0 0 -210z"/>
<path d="M1190 5635 l0 -105 2330 0 2330 0 0 105 0 105 -2330 0 -2330 0 0
-105z"/>
<path d="M1320 5310 c-441 -6 -448 -7 -491 -56 -74 -85 -67 -227 15 -303 23
-22 39 -26 144 -33 346 -24 4657 -24 5051 0 l133 8 39 41 c49 53 65 110 51
182 -6 29 -23 69 -38 88 -48 63 -58 65 -484 74 -435 9 -3786 9 -4420 -1z"/>
<path d="M1482 4670 l-302 -5 69 -86 c83 -103 177 -190 291 -268 171 -118 409
-217 575 -242 56 -8 464 -13 1375 -16 l1295 -5 168 56 c264 87 432 175 634
333 93 72 233 205 233 220 0 6 -14 13 -31 17 -37 7 -3860 4 -4307 -4z"/>
<path d="M2240 3830 c-255 -7 -273 -11 -295 -63 -22 -52 3 -102 59 -120 53
-16 2968 -18 3031 -2 32 8 44 18 59 48 15 32 16 42 5 68 -24 59 -33 61 -342
70 -323 9 -2165 9 -2517 -1z"/>
<path d="M2360 3305 l0 -105 1160 0 1160 0 0 105 0 105 -1160 0 -1160 0 0
-105z"/>
<path d="M2250 2970 c0 -12 -5 -96 -10 -188 -6 -92 -23 -545 -40 -1007 -32
-904 -47 -1254 -56 -1298 l-6 -28 109 3 108 3 5 1030 c5 937 7 1035 23 1089
10 32 26 71 37 85 24 34 87 79 137 97 50 17 168 18 226 0 61 -18 129 -69 155
-114 44 -79 45 -96 49 -1169 l4 -1023 105 0 104 0 0 838 c1 895 9 1213 35
1300 20 65 58 109 127 148 49 27 60 29 158 29 97 0 109 -2 158 -29 75 -42 117
-92 132 -157 22 -104 29 -411 30 -1266 l0 -863 105 0 105 0 0 923 c1 932 7
1141 35 1228 19 56 71 110 135 141 61 30 189 37 259 13 73 -24 145 -84 165
-137 32 -86 37 -223 43 -1195 l6 -973 105 0 104 0 -6 43 c-9 66 -24 402 -56
1307 -16 459 -34 907 -40 995 -5 88 -10 168 -10 178 0 16 -67 17 -1270 17
l-1270 0 0 -20z"/>
<path d="M2633 2554 c-18 -9 -37 -30 -44 -47 -10 -25 -14 -254 -17 -1044 l-3
-1013 105 0 106 0 0 868 c-1 477 -5 941 -10 1031 -8 153 -10 165 -32 187 -31
31 -67 37 -105 18z"/>
<path d="M3482 2555 c-17 -8 -38 -27 -45 -42 -9 -22 -13 -262 -15 -1046 l-3
-1018 103 3 103 3 3 425 c4 659 -11 1610 -26 1637 -12 21 -61 54 -79 53 -4 -1
-23 -7 -41 -15z"/>
<path d="M4320 2548 c-28 -19 -37 -33 -43 -68 -5 -25 -11 -492 -14 -1038 l-5
-992 107 0 106 0 -4 1013 c-2 556 -8 1025 -12 1040 -15 57 -84 79 -135 45z"/>
</g>
</svg>
