<?xml version="1.0" encoding="UTF-8" standalone="no"?>
<svg
   viewBox="0 0 512 512"
   style="height: 512px; width: 512px;"
   version="1.1"
   id="svg20"
   sodipodi:docname="doric-column.svg"
   xml:space="preserve"
   inkscape:version="1.2.2 (732a01da63, 2022-12-09)"
   xmlns:inkscape="http://www.inkscape.org/namespaces/inkscape"
   xmlns:sodipodi="http://sodipodi.sourceforge.net/DTD/sodipodi-0.dtd"
   xmlns="http://www.w3.org/2000/svg"
   xmlns:svg="http://www.w3.org/2000/svg"><defs
     id="defs24" /><sodipodi:namedview
     id="namedview22"
     pagecolor="#505050"
     bordercolor="#eeeeee"
     borderopacity="1"
     inkscape:showpageshadow="0"
     inkscape:pageopacity="0"
     inkscape:pagecheckerboard="0"
     inkscape:deskcolor="#505050"
     showgrid="false"
     inkscape:zoom="2.2207572"
     inkscape:cx="252.61654"
     inkscape:cy="143.41955"
     inkscape:window-width="1920"
     inkscape:window-height="991"
     inkscape:window-x="-9"
     inkscape:window-y="-9"
     inkscape:window-maximized="1"
     inkscape:current-layer="svg20" /><rect
     style="fill:#000000;fill-opacity:1"
     id="rect1009"
     width="601.15424"
     height="566.76617"
     x="-39.482586"
     y="-21.651741" /><path
     style="fill:#00ff00;fill-opacity:1;stroke-width:1.54817;image-rendering:auto"
     d="m 143.82116,492.02515 c -1.33774,-1.338 -2.42582,-3.60225 -2.41738,-5.03163 0.0108,-1.42929 0.69994,-19.6675 1.53634,-40.52954 0.83629,-20.86178 2.58559,-65.79815 3.88695,-99.85836 1.30152,-34.06025 2.736,-63.1108 3.18771,-64.55784 0.4515,-1.44673 2.17875,-3.06118 3.83823,-3.58789 2.45371,-0.77842 3.01727,-2.38419 3.01727,-8.59401 v -7.63698 h -5.38702 c -7.97867,0 -17.41498,-4.34968 -21.31355,-9.82447 -4.16729,-5.85252 -4.83811,-20.57787 -1.14107,-25.05467 2.03056,-2.45913 2.02895,-2.87075 -0.0169,-3.55707 -1.26989,-0.42683 -6.62584,-3.02609 -11.90104,-5.77556 -18.576085,-9.68277 -33.692355,-23.51583 -46.624455,-42.6668 -3.39927,-5.03407 -6.20504,-7.42267 -9.49036,-8.07972 -6.67186,-1.33442 -16.611,-11.86864 -18.77292,-19.89732 -4.84997,-18.0118 6.04322,-36.06502 23.6881,-39.25771 5.77366,-1.04473 5.80557,-1.09202 5.80557,-8.619169 V 91.92774 h -20.78992 c -16.83586,0 -21.25302,-0.462726 -23.22292,-2.43288 -3.60506,-3.605082 -3.60506,-53.456866 0,-57.061984 C 29.893505,30.24326 52.870305,30 257.49993,30 c 204.62966,0 227.60655,0.24326 229.79616,2.432876 3.60521,3.605118 3.60521,53.456902 0,57.061984 -1.97002,1.970154 -6.3869,2.43288 -23.2228,2.43288 H 443.2838 v 7.568671 c 0,7.527149 0.0322,7.574439 5.8056,8.619169 24.01219,4.34482 33.24432,34.5574 15.86909,51.93274 -3.45678,3.45669 -8.63472,6.73118 -12.13514,7.6735 -3.78579,1.01947 -7.1574,3.25643 -8.87335,5.88733 -4.85006,7.43632 -19.56696,21.99469 -30.02227,29.69965 -8.83009,6.50703 -24.40795,15.68808 -29.49686,17.38417 -1.10502,0.36829 -0.59916,2.98483 1.45062,7.50401 3.9256,8.65426 3.95282,12.90498 0.13716,21.31178 -3.44556,7.59183 -12.21159,12.62838 -22.08009,12.68643 l -5.80552,0.0348 v 7.63672 c 0,6.20974 0.56351,7.81559 3.01732,8.59415 1.65939,0.52669 3.3866,2.1411 3.83831,3.58794 0.45168,1.44637 1.88601,30.49742 3.18747,64.5578 1.30152,34.06016 3.05062,78.99655 3.88704,99.85838 0.83625,20.86185 1.52757,39.10031 1.53606,40.52965 0.0113,1.42925 -1.07907,3.69346 -2.41719,5.03135 -2.16663,2.16673 -14.6106,2.43324 -113.68152,2.43324 -99.07083,0 -111.51499,-0.26651 -113.68167,-2.43324 z m 28.5311,-89.06353 c 0,-84.00165 -0.11659,-82.93843 9.86736,-90.05977 3.5978,-2.56643 7.02644,-3.45297 13.35544,-3.45297 6.32901,0 9.75781,0.88654 13.35615,3.45297 9.98328,7.12134 9.86668,6.05812 9.86668,90.05977 v 76.01466 h 7.74112 7.74087 v -76.01466 c 0,-84.00165 -0.1163,-82.93843 9.86716,-90.05977 6.756,-4.81914 19.95526,-4.81914 26.7116,0 9.98337,7.12134 9.86723,6.05812 9.86723,90.05977 v 76.01466 h 7.74093 7.74101 v -76.01466 c 0,-84.00165 -0.11655,-82.93843 9.86685,-90.05977 6.75603,-4.81914 19.95584,-4.81914 26.71208,0 9.98334,7.12134 9.86679,6.05812 9.86679,90.05977 v 76.01466 h 7.84697 7.84777 l -0.86398,-11.99846 c -0.47533,-6.59926 -1.94725,-44.0464 -3.2716,-83.21563 -1.32408,-39.16911 -2.78059,-75.57111 -3.23626,-80.89311 l -0.82829,-9.67625 h -92.64493 -92.64558 l -0.83955,9.67625 c -0.46172,5.322 -1.9168,41.724 -3.23353,80.89311 -1.31684,39.16923 -2.7843,76.61637 -3.26091,83.21563 l -0.86628,11.99846 h 7.84762 7.84728 z m 30.96385,1.03752 c 0,-66.09631 -0.28824,-75.26464 -2.43282,-77.40957 -1.33822,-1.33765 -3.72685,-2.43287 -5.30823,-2.43287 -1.58132,0 -3.97016,1.09522 -5.30805,2.43287 -2.14488,2.14493 -2.43293,11.31326 -2.43293,77.40957 v 74.97714 h 7.74098 7.74105 z m 61.92799,0 c 0,-66.09631 -0.28853,-75.26464 -2.43322,-77.40957 -1.33788,-1.33765 -3.7264,-2.43287 -5.30767,-2.43287 -1.58167,0 -3.97043,1.09522 -5.30857,2.43287 -2.14455,2.14493 -2.43278,11.31326 -2.43278,77.40957 v 74.97714 h 7.74135 7.74089 z m 61.9273,0 c 0,-66.09631 -0.28819,-75.26464 -2.43307,-77.40957 -1.33773,-1.33765 -3.72632,-2.43287 -5.30777,-2.43287 -1.5813,0 -3.9699,1.09522 -5.30809,2.43287 -2.14495,2.14493 -2.43278,11.31326 -2.43278,77.40957 v 74.97714 h 7.74087 7.74084 z m 15.48213,-134.02913 v -7.74111 h -85.15032 -85.15095 v 7.74111 7.74101 h 85.15095 85.15032 z m 28.53086,-25.65585 c 1.33817,-1.33806 2.43296,-3.7267 2.43296,-5.30816 0,-1.58102 -1.09479,-3.97 -2.43296,-5.30791 -2.16655,-2.16636 -14.61066,-2.43303 -113.68118,-2.43303 -99.07101,0 -111.51547,0.26667 -113.68205,2.43303 -1.33774,1.33791 -2.43302,3.72689 -2.43302,5.30791 0,1.58146 1.09528,3.9701 2.43302,5.30816 2.16658,2.16676 14.61104,2.43282 113.68205,2.43282 99.07052,0 111.51463,-0.26606 113.68118,-2.43282 z m -8.09729,-32.58339 c 16.72243,-5.27243 28.89348,-11.48642 42.26819,-21.57976 11.76867,-8.88125 21.94148,-18.74087 20.65892,-20.02309 -0.44216,-0.44261 -77.18472,-0.62688 -170.53935,-0.41019 l -169.735415,0.39368 5.85211,7.41824 c 12.250405,15.5291 31.823655,28.34217 52.892915,34.62508 11.46899,3.42004 12.80462,3.4636 108.68097,3.5455 l 97.06921,0.083 12.85245,-4.05243 z m 87.71547,-60.08147 c 10.30341,-5.32812 10.30341,-21.22325 0,-26.55149 -3.62408,-1.87406 -32.69954,-2.20621 -193.15001,-2.20621 -143.14532,0 -189.866665,0.4479 -192.943295,1.84966 -10.59532,4.82767 -10.93594,21.20274 -0.56028,26.95371 5.72258,3.17181 380.516925,3.12752 386.653585,-0.0464 z M 427.80425,99.668701 V 91.92774 H 257.50321 87.201515 v 7.740961 7.740989 H 257.50321 427.80425 Z M 474.24996,60.963865 V 45.481953 H 257.50321 40.755805 V 60.963865 76.445824 H 257.50321 474.24996 Z"
     id="path182"
     inkscape:highlight-color="#71ff55" /></svg>
