<?xml version="1.0" encoding="UTF-8" standalone="no"?>
<svg
   viewBox="0 0 24 24"
   style="height: 24px; width: 24px;"
   version="1.1"
   id="svg20"
   sodipodi:docname="logo.svg"
   xml:space="preserve"
   inkscape:version="1.2.2 (732a01da63, 2022-12-09)"
   xmlns:inkscape="http://www.inkscape.org/namespaces/inkscape"
   xmlns:sodipodi="http://sodipodi.sourceforge.net/DTD/sodipodi-0.dtd"
   xmlns="http://www.w3.org/2000/svg"
   xmlns:svg="http://www.w3.org/2000/svg"><defs
   id="defs24" />
    <sodipodi:namedview
   id="namedview22"
   pagecolor="#505050"
   bordercolor="#eeeeee"
   borderopacity="1"
   inkscape:showpageshadow="0"
   inkscape:pageopacity="0"
   inkscape:pagecheckerboard="0"
   inkscape:deskcolor="#505050"
   showgrid="false"
   inkscape:zoom="12.5625"
   inkscape:cx="33.273632"
   inkscape:cy="23.044777"
   inkscape:window-width="1920"
   inkscape:window-height="991"
   inkscape:window-x="-9"
   inkscape:window-y="-9"
   inkscape:window-maximized="1"
   inkscape:current-layer="svg20" />
    <rect
   style="fill:#000000;fill-opacity:1"
   id="rect1009"
   width="24"
   height="24"
   x="0"
   y="0" />
    <path
   style="fill:#00ff00;fill-opacity:1;stroke-width:0.0430357;image-rendering:auto"
   d="m 7.1105302,21.894284 c -0.057519,-0.05757 -0.1043337,-0.155122 -0.1039669,-0.216659 3.569e-4,-0.0615 0.030163,-0.846866 0.066092,-1.745155 0.03594,-0.89829 0.1111996,-2.833179 0.1671807,-4.299783 0.055964,-1.466587 0.1176699,-2.717494 0.1371078,-2.779801 0.019435,-0.06235 0.09371,-0.131801 0.1650834,-0.154477 0.1055352,-0.0334 0.1297673,-0.102664 0.1297673,-0.370043 V 11.999495 H 7.4400911 c -0.3431647,0 -0.7490418,-0.187278 -0.9167132,-0.42302 C 6.3441407,11.3245 6.315284,10.690415 6.4742874,10.497648 6.5616247,10.391757 6.561558,10.374061 6.4739036,10.344489 6.419021,10.326089 6.1886499,10.21419 5.9617658,10.095792 5.1627312,9.6788822 4.5125741,9.0832232 3.9563523,8.2586241 3.8101445,8.041852 3.6894681,7.9390072 3.5481629,7.9107099 3.2612014,7.8532568 2.8337119,7.3996673 2.7407253,7.053959 2.5321234,6.278396 3.0006505,5.5010429 3.7595682,5.3635692 4.0078984,5.3185848 4.0092706,5.3165488 4.0092706,4.9924383 V 4.6665381 H 3.115091 c -0.7241278,0 -0.9141136,-0.019917 -0.9988389,-0.1047569 C 1.9611788,4.4065516 1.9611788,2.2599882 2.1162351,2.1047561 2.21042,2.0104754 3.1986706,2 11.999938,2 c 8.801291,0 9.789533,0.010481 9.883714,0.1047561 0.155057,0.1552321 0.155057,2.3017955 0,2.4570251 -0.08477,0.084827 -0.274713,0.1047569 -0.998822,0.1047569 h -0.894179 v 0.3259002 c 0,0.3241105 0.0027,0.3261465 0.249707,0.3711309 1.032766,0.1870868 1.429872,1.488003 0.682536,2.2361668 -0.148665,0.1488387 -0.371389,0.289845 -0.521954,0.3304024 -0.162833,0.043844 -0.307844,0.1402204 -0.381648,0.2535104 -0.208603,0.3201972 -0.841582,0.9470674 -1.291285,1.2788309 -0.379756,0.2802061 -1.049777,0.6755183 -1.268669,0.7485483 -0.04743,0.01574 -0.02567,0.128527 0.06242,0.323104 0.168854,0.372657 0.170036,0.555678 0.0066,0.91767 -0.148196,0.326889 -0.525215,0.543744 -0.949659,0.546275 l -0.249713,0.0024 v 0.328827 c 0,0.267378 0.0243,0.336517 0.129773,0.370057 0.07132,0.02274 0.145662,0.09219 0.165083,0.154485 0.01936,0.06234 0.08109,1.313183 0.137109,2.779784 0.05597,1.466595 0.131206,3.401503 0.167182,4.299792 0.03593,0.898286 0.06567,1.683635 0.06609,1.745152 0.0024,0.06145 -0.04649,0.15904 -0.103959,0.216648 C 16.797124,21.988458 16.261846,22 12.000754,22 7.7396266,22 7.2043869,21.988604 7.1112091,21.895212 Z M 8.3376809,18.05929 c 0,-3.61701 -0.00499,-3.571224 0.4244039,-3.877849 0.1547508,-0.110505 0.3022091,-0.148691 0.574421,-0.148691 0.2722143,0 0.4196918,0.03828 0.5744334,0.148691 0.4294308,0.306625 0.4243988,0.260839 0.4243988,3.877849 v 3.273139 h 0.33295 0.332961 V 18.05929 c 0,-3.61701 -0.0055,-3.571224 0.424381,-3.877849 0.290582,-0.20752 0.858252,-0.20752 1.148866,0 0.429389,0.306625 0.424422,0.260839 0.424422,3.877849 v 3.273139 h 0.332937 0.332949 V 18.05929 c 0,-3.61701 -0.0054,-3.571224 0.424379,-3.877849 0.290591,-0.20752 0.858308,-0.20752 1.148899,0 0.429385,0.306625 0.424379,0.260839 0.424379,3.877849 v 3.273139 H 16 16.337507 l -0.03703,-0.516658 c -0.02059,-0.284158 -0.08374,-1.896581 -0.140754,-3.583186 -0.05699,-1.686545 -0.1196,-3.253974 -0.139188,-3.483151 l -0.03556,-0.416653 H 12.000119 8.0153747 l -0.03618,0.416653 c -0.019791,0.229177 -0.082444,1.796606 -0.1390788,3.483151 -0.05666,1.686605 -0.1197457,3.299028 -0.1402591,3.583186 l -0.037227,0.516658 h 0.3375268 0.3375167 z m 1.331766,0.04475 c 0,-2.846015 -0.012462,-3.240788 -0.104621,-3.333145 -0.057513,-0.05756 -0.1603022,-0.10476 -0.2283201,-0.10476 -0.068019,0 -0.1707653,0.04717 -0.2282962,0.104757 -0.092245,0.09237 -0.104642,0.48713 -0.104642,3.333145 v 3.228472 h 0.3329382 0.3329411 z m 2.6635921,0 c 0,-2.846015 -0.01248,-3.240788 -0.104659,-3.333145 -0.05751,-0.05755 -0.160288,-0.104757 -0.228305,-0.104757 -0.06804,0 -0.170765,0.04717 -0.228305,0.104757 -0.09228,0.09237 -0.104653,0.48713 -0.104653,3.333145 v 3.228475 h 0.332958 0.332964 z m 2.663536,0 c 0,-2.846015 -0.01251,-3.240788 -0.104684,-3.333145 -0.05746,-0.05755 -0.16024,-0.104757 -0.228253,-0.104757 -0.06802,0 -0.170756,0.04717 -0.228329,0.104757 -0.09227,0.09237 -0.104618,0.48713 -0.104618,3.333145 v 3.228475 h 0.332947 0.332937 z m 0.665886,-5.77112 V 11.999527 H 12.000075 8.3376809 v 0.333336 0.333319 h 3.6623941 3.662386 z m 1.227138,-1.10471 c 0.05752,-0.05755 0.104652,-0.160489 0.104652,-0.228582 0,-0.06808 -0.04702,-0.170938 -0.104652,-0.228525 -0.09314,-0.09325 -0.628416,-0.104779 -4.889524,-0.104779 -4.2611105,0 -4.7963585,0.01143 -4.8895448,0.104779 -0.057516,0.05754 -0.1046538,0.160449 -0.1046538,0.228525 0,0.06809 0.047119,0.17096 0.1046538,0.228582 0.093185,0.09325 0.6284343,0.10476 4.8895448,0.10476 4.261108,0 4.796355,-0.01136 4.889524,-0.10476 z M 16.54132,9.825186 c 0.719255,-0.2270124 1.242743,-0.494599 1.81799,-0.9291894 0.506182,-0.3824205 0.943739,-0.8069701 0.888581,-0.8621831 -0.019,-0.019041 -3.3198,-0.02701 -7.335041,-0.017664 L 4.6123961,8.0331226 4.8641,8.3525414 C 5.3909987,9.0212089 6.2328582,9.5729256 7.1390619,9.8434676 7.6323621,9.990706 7.6897955,9.9925997 11.81351,9.99611 l 4.175013,0.00428 0.552797,-0.1744948 z m 3.772718,-2.5870326 c 0.443162,-0.2294284 0.443162,-0.9138523 0,-1.1432809 -0.155865,-0.080709 -1.406408,-0.095009 -8.30754,-0.095009 -6.1567803,0 -8.1662981,0.019277 -8.2986238,0.079644 -0.455715,0.2078304 -0.470364,0.912926 -0.0241,1.1605548 0.2461321,0.1365771 16.3663038,0.13466 16.6302658,-0.00216 z M 19.324858,4.9998529 V 4.6665381 H 12.000075 4.6752802 v 0.3333148 0.3333224 h 7.3247948 7.324783 z M 21.322521,3.3332675 V 2.6666353 H 12.000075 2.6776156 v 0.6666322 0.6666379 h 9.3224594 9.322446 z"
   id="path182"
   inkscape:highlight-color="#71ff55" /></svg>
